<svg width="38" height="38" viewBox="0 0 38 38" fill="none" xmlns="http://www.w3.org/2000/svg">
<circle cx="19" cy="19" r="6" stroke="white" stroke-width="2"/>
<path d="M17.2844 2.36293C18.061 1.06696 19.939 1.06696 20.7156 2.36293L23.0133 6.19735C23.4662 6.95315 24.3603 7.32352 25.215 7.10934L29.5511 6.02273C31.0166 5.65547 32.3445 6.98338 31.9773 8.4489L30.8907 12.785C30.6765 13.6397 31.0468 14.5338 31.8026 14.9867L35.6371 17.2844C36.933 18.061 36.933 19.939 35.6371 20.7156L31.8026 23.0133C31.0469 23.4662 30.6765 24.3603 30.8907 25.215L31.9773 29.5511C32.3445 31.0166 31.0166 32.3445 29.5511 31.9773L25.215 30.8907C24.3603 30.6765 23.4662 31.0468 23.0133 31.8026L20.7156 35.6371C19.939 36.933 18.061 36.933 17.2844 35.6371L14.9867 31.8026C14.5338 31.0469 13.6397 30.6765 12.785 30.8907L8.4489 31.9773C6.98338 32.3445 5.65547 31.0166 6.02273 29.5511L7.10934 25.215C7.32352 24.3603 6.95315 23.4662 6.19736 23.0133L2.36293 20.7156C1.06696 19.939 1.06696 18.061 2.36293 17.2844L6.19735 14.9867C6.95315 14.5338 7.32352 13.6397 7.10934 12.785L6.02273 8.4489C5.65547 6.98338 6.98338 5.65547 8.4489 6.02273L12.785 7.10934C13.6397 7.32352 14.5338 6.95315 14.9867 6.19736L17.2844 2.36293Z" stroke="white" stroke-width="2"/>
</svg>
